<?xml version="1.0" encoding="UTF-8"?>
<svg version="1.1" xmlns="http://www.w3.org/2000/svg" width="24" height="24">
<path d="M0 0 C4.00592666 0.27313136 5.540574 0.47676483 8.25 3.5625 C8.8275 4.366875 9.405 5.17125 10 6 C10.66 6 11.32 6 12 6 C12.5775 5.195625 13.155 4.39125 13.75 3.5625 C16.459426 0.47676483 17.99407334 0.27313136 22 0 C22.05416188 1.60379341 22.09286638 3.20811406 22.125 4.8125 C22.14820312 5.70582031 22.17140625 6.59914063 22.1953125 7.51953125 C22 10 22 10 20 13 C19.60986284 14.9896995 19.26797351 16.99019869 19 19 C13.37024508 20.0235918 8.62975492 20.0235918 3 19 C2.690625 17.88625 2.38125 16.7725 2.0625 15.625 C1.17673517 12.2054845 1.17673517 12.2054845 0 10 C-0.06996014 8.29297265 -0.08440154 6.58331997 -0.0625 4.875 C-0.05347656 3.96492187 -0.04445312 3.05484375 -0.03515625 2.1171875 C-0.02355469 1.41851562 -0.01195313 0.71984375 0 0 Z " fill="#000000" transform="translate(1,2)"/>
</svg>
