<?xml version="1.0" encoding="UTF-8"?>
<svg version="1.1" xmlns="http://www.w3.org/2000/svg" width="30" height="30">
<path d="M0 0 C3.12578143 1.6720747 5.39281175 3.7856235 7 7 C7.61511183 11.88574542 7.96611852 16.49054579 4.875 20.5625 C1.75477323 23.20790966 0.03467916 23.8123405 -4 24 C-4 21.03 -4 18.06 -4 15 C-3.01 15 -2.02 15 -1 15 C-1 14.34 -1 13.68 -1 13 C-1.99 12.67 -2.98 12.34 -4 12 C-3.67 10.35 -3.34 8.7 -3 7 C-3.66 7 -4.32 7 -5 7 C-5.33 8.65 -5.66 10.3 -6 12 C-6.99 12 -7.98 12 -9 12 C-9 12.99 -9 13.98 -9 15 C-8.01 15 -7.02 15 -6 15 C-6 17.97 -6 20.94 -6 24 C-10.03467916 23.8123405 -11.75477323 23.20790966 -14.875 20.5625 C-17.49004472 17.03898195 -17.70747898 13.70886137 -17.5 9.41015625 C-16.68318836 5.4728689 -14.92240049 3.71365759 -12 1 C-8.27533151 -0.86233425 -4.05504687 -0.57130829 0 0 Z " fill="#000000" transform="translate(20,3)"/>
</svg>
