<?xml version="1.0" encoding="UTF-8"?>
<svg version="1.1" xmlns="http://www.w3.org/2000/svg" width="48" height="48">
<path d="M0 0 C4.64913236 0.38107642 6.2717058 1.28807162 9.8125 4.3125 C11.72743166 6.64984306 13.5376303 9.02777204 15.296875 11.484375 C16.04710937 12.38929687 16.04710937 12.38929687 16.8125 13.3125 C17.4725 13.3125 18.1325 13.3125 18.8125 13.3125 C19.95074575 11.9395644 21.02414428 10.51245619 22.0625 9.0625 C24.96256933 5.25765698 27.41577813 2.41926256 31.8125 0.3125 C35.625 0 35.625 0 38.8125 0.3125 C40.9496365 2.4496365 40.04402778 7.05137131 40.0625 10 C40.083125 10.80373047 40.10375 11.60746094 40.125 12.43554688 C40.15818078 17.50805797 39.53902527 20.87113384 36.8125 25.3125 C36.1525 25.3125 35.4925 25.3125 34.8125 25.3125 C35.3075 26.3025 35.3075 26.3025 35.8125 27.3125 C36.43797746 31.86955006 36.0415646 34.61124719 33.3125 38.25 C30.85791859 40.84451004 29.2089759 41.79838079 25.625 41.9375 C21.8125 41.3125 21.8125 41.3125 19.8125 39.9375 C18.8125 38.3125 18.8125 38.3125 18.8125 36.3125 C18.1525 36.3125 17.4925 36.3125 16.8125 36.3125 C16.503125 36.951875 16.19375 37.59125 15.875 38.25 C14.8125 40.3125 14.8125 40.3125 13.8125 41.3125 C7.13017956 42.21857735 7.13017956 42.21857735 3.94921875 40.03125 C1.62751118 37.59318 -0.02593969 35.61221652 -0.44921875 32.20703125 C-0.37915291 30.24150016 -0.2841101 28.2769053 -0.1875 26.3125 C-1.51903266 24.00745956 -1.51903266 24.00745956 -3.1875 22.3125 C-4.10050909 19.57347274 -4.31596608 17.9380173 -4.3203125 15.1171875 C-4.32160156 14.31925781 -4.32289062 13.52132813 -4.32421875 12.69921875 C-4.32035156 11.87035156 -4.31648437 11.04148437 -4.3125 10.1875 C-4.31636719 9.35089844 -4.32023438 8.51429687 -4.32421875 7.65234375 C-4.31250149 0.42279426 -4.31250149 0.42279426 0 0 Z " fill="#F7F7F7" transform="translate(6.1875,3.6875)"/>
<path d="M0 0 C4.64913236 0.38107642 6.2717058 1.28807162 9.8125 4.3125 C11.72743166 6.64984306 13.5376303 9.02777204 15.296875 11.484375 C16.04710937 12.38929687 16.04710937 12.38929687 16.8125 13.3125 C17.4725 13.3125 18.1325 13.3125 18.8125 13.3125 C19.95074575 11.9395644 21.02414428 10.51245619 22.0625 9.0625 C24.96256933 5.25765698 27.41577813 2.41926256 31.8125 0.3125 C35.625 0 35.625 0 38.8125 0.3125 C40.9496365 2.4496365 40.04402778 7.05137131 40.0625 10 C40.083125 10.80373047 40.10375 11.60746094 40.125 12.43554688 C40.15818078 17.50805797 39.53902527 20.87113384 36.8125 25.3125 C36.1525 25.3125 35.4925 25.3125 34.8125 25.3125 C35.3075 26.3025 35.3075 26.3025 35.8125 27.3125 C36.43797746 31.86955006 36.0415646 34.61124719 33.3125 38.25 C30.85791859 40.84451004 29.2089759 41.79838079 25.625 41.9375 C21.8125 41.3125 21.8125 41.3125 19.8125 39.9375 C18.8125 38.3125 18.8125 38.3125 18.8125 36.3125 C18.1525 36.3125 17.4925 36.3125 16.8125 36.3125 C16.503125 36.951875 16.19375 37.59125 15.875 38.25 C14.8125 40.3125 14.8125 40.3125 13.8125 41.3125 C7.13017956 42.21857735 7.13017956 42.21857735 3.94921875 40.03125 C1.62751118 37.59318 -0.02593969 35.61221652 -0.44921875 32.20703125 C-0.37915291 30.24150016 -0.2841101 28.2769053 -0.1875 26.3125 C-1.51903266 24.00745956 -1.51903266 24.00745956 -3.1875 22.3125 C-4.10050909 19.57347274 -4.31596608 17.9380173 -4.3203125 15.1171875 C-4.32160156 14.31925781 -4.32289062 13.52132813 -4.32421875 12.69921875 C-4.32035156 11.87035156 -4.31648437 11.04148437 -4.3125 10.1875 C-4.31636719 9.35089844 -4.32023438 8.51429687 -4.32421875 7.65234375 C-4.31250149 0.42279426 -4.31250149 0.42279426 0 0 Z M-1.1875 2.3125 C-2.72059378 3.84559378 -2.35672657 5.24431814 -2.375 7.375 C-2.29924684 12.65247032 -2.1286623 18.16335602 1.5625 22.25 C4.29481555 23.54026012 6.82122861 23.9725828 9.8125 24.3125 C7.5025 25.3025 5.1925 26.2925 2.8125 27.3125 C3.09493589 32.23131874 3.09493589 32.23131874 5.5625 36.3125 C7.79264268 37.49601258 7.79264268 37.49601258 10.375 37.25 C13.32383525 36.1158326 14.22640779 35.00885676 15.8125 32.3125 C16.1425 31.3225 16.4725 30.3325 16.8125 29.3125 C17.4725 29.3125 18.1325 29.3125 18.8125 29.3125 C19.493125 30.735625 19.493125 30.735625 20.1875 32.1875 C21.61488254 35.31563679 21.61488254 35.31563679 23.8125 37.3125 C26.99359721 37.14507383 28.57631387 36.49123545 31.125 34.5625 C33.12179204 31.90011061 33.17366409 30.56297681 32.8125 27.3125 C30.5025 26.3225 28.1925 25.3325 25.8125 24.3125 C26.43898438 24.13074219 27.06546875 23.94898437 27.7109375 23.76171875 C28.52820313 23.51035156 29.34546875 23.25898438 30.1875 23 C31.40566406 22.63455078 31.40566406 22.63455078 32.6484375 22.26171875 C35.14434629 21.39881815 35.14434629 21.39881815 36.8125 18.3125 C37.99997825 13.32509135 37.914339 8.40445022 37.8125 3.3125 C35.53671364 2.49438687 35.53671364 2.49438687 32.8125 2.3125 C27.06153015 5.76899044 22.92238646 10.99658258 19.78515625 16.84375 C19.30369141 17.57078125 19.30369141 17.57078125 18.8125 18.3125 C18.1525 18.3125 17.4925 18.3125 16.8125 18.3125 C15.55078125 16.5546875 15.55078125 16.5546875 14.125 14.1875 C10.70835453 8.90419945 7.06516351 4.37315114 0.9375 2.375 C0.23625 2.354375 -0.465 2.33375 -1.1875 2.3125 Z " fill="#080808" transform="translate(6.1875,3.6875)"/>
</svg>
