<?xml version="1.0" encoding="UTF-8"?>
<svg version="1.1" xmlns="http://www.w3.org/2000/svg" width="30" height="30">
<path d="M0 0 C0.78890625 -0.00386719 1.5778125 -0.00773438 2.390625 -0.01171875 C3.21046875 -0.00011719 4.0303125 0.01148438 4.875 0.0234375 C6.10476562 0.00603516 6.10476562 0.00603516 7.359375 -0.01171875 C8.54273438 -0.00591797 8.54273438 -0.00591797 9.75 0 C10.46929688 0.00338379 11.18859375 0.00676758 11.9296875 0.01025391 C14.47587878 0.51834177 15.35124323 1.31450194 16.875 3.3984375 C17.26318359 5.34375 17.26318359 5.34375 17.2734375 7.5234375 C17.27923828 8.70679688 17.27923828 8.70679688 17.28515625 9.9140625 C17.27355469 10.73390625 17.26195313 11.55375 17.25 12.3984375 C17.26160156 13.21828125 17.27320312 14.038125 17.28515625 14.8828125 C17.28128906 15.67171875 17.27742188 16.460625 17.2734375 17.2734375 C17.26836182 18.35238281 17.26836182 18.35238281 17.26318359 19.453125 C16.75509573 21.99931628 15.95893556 22.87468073 13.875 24.3984375 C11.9296875 24.78662109 11.9296875 24.78662109 9.75 24.796875 C8.96109375 24.80074219 8.1721875 24.80460937 7.359375 24.80859375 C6.53953125 24.79699219 5.7196875 24.78539063 4.875 24.7734375 C3.64523437 24.79083984 3.64523437 24.79083984 2.390625 24.80859375 C1.20726562 24.80279297 1.20726562 24.80279297 0 24.796875 C-0.71929688 24.79349121 -1.43859375 24.79010742 -2.1796875 24.78662109 C-4.72587878 24.27853323 -5.60124323 23.48237306 -7.125 21.3984375 C-7.51318359 19.453125 -7.51318359 19.453125 -7.5234375 17.2734375 C-7.52730469 16.48453125 -7.53117188 15.695625 -7.53515625 14.8828125 C-7.52355469 14.06296875 -7.51195312 13.243125 -7.5 12.3984375 C-7.51160156 11.57859375 -7.52320313 10.75875 -7.53515625 9.9140625 C-7.52935547 8.73070312 -7.52935547 8.73070312 -7.5234375 7.5234375 C-7.52005371 6.80414062 -7.51666992 6.08484375 -7.51318359 5.34375 C-6.66386947 1.0875645 -4.04682146 0.01903747 0 0 Z M-0.125 9.3984375 C-0.45833333 12.3984375 -0.45833333 12.3984375 -0.125 15.3984375 C1.76000271 17.71406837 1.76000271 17.71406837 4.875 17.6484375 C7.98999729 17.71406837 7.98999729 17.71406837 9.875 15.3984375 C10.20833333 12.3984375 10.20833333 12.3984375 9.875 9.3984375 C7.98999729 7.08280663 7.98999729 7.08280663 4.875 7.1484375 C1.76000271 7.08280663 1.76000271 7.08280663 -0.125 9.3984375 Z " fill="#000000" transform="translate(10.125,2.6015625)"/>
<path d="M0 0 C3 0.125 3 0.125 4 1.125 C4.125 4.125 4.125 4.125 4 7.125 C3 8.125 3 8.125 0 8.25 C-3 8.125 -3 8.125 -4 7.125 C-4.125 4.125 -4.125 4.125 -4 1.125 C-3 0.125 -3 0.125 0 0 Z " fill="#000000" transform="translate(15,10.875)"/>
</svg>
