<?xml version="1.0" encoding="UTF-8"?>
<svg version="1.1" xmlns="http://www.w3.org/2000/svg" width="32" height="32">
<path d="M0 0 C2.33853336 3.09511769 3.46242594 4.98429432 4.125 8.8125 C3.74559988 10.28096953 3.32540648 11.73923165 2.875 13.1875 C2.04087764 16.22020414 1.87550032 17.32083886 3.3203125 20.16796875 C4.83495085 22.1581331 6.38940069 24.01316399 8.125 25.8125 C7.465 26.8025 6.805 27.7925 6.125 28.8125 C2.75106379 27.75212005 1.24270246 26.95374295 -1.0625 24.1875 C-4.28807096 21.46368452 -4.81440638 21.58506354 -8.8125 21.8125 C-12.353755 21.9813825 -14.49063726 21.96691344 -17.375 19.8125 C-20.36800826 16.22089009 -21.76288491 13.50408511 -21.875 8.8125 C-21.10831151 4.79992475 -19.83634731 1.77384731 -16.9375 -1.125 C-11.13542035 -4.11395012 -5.22744949 -3.97740722 0 0 Z M-14.875 3.8125 C-16.74902261 6.31119682 -16.87806118 7.6655634 -16.8125 10.8125 C-15.61375891 14.6484715 -14.37287086 15.86923841 -10.875 17.8125 C-6.90368124 17.89354732 -5.39744166 17.2813579 -2.4375 14.625 C-0.61128792 11.89324223 -0.61128792 11.89324223 -0.9375 8.6875 C-2.09884022 5.11446628 -2.09884022 5.11446628 -4.875 2.8125 C-8.84254849 1.71509297 -11.48647003 1.27110253 -14.875 3.8125 Z " fill="#4FA8FF" transform="translate(22.875,3.1875)"/>
</svg>
